<?xml version="1.0" encoding="utf-8"?>
<!-- Generator: Adobe Illustrator 20.1.0, SVG Export Plug-In . SVG Version: 6.00 Build 0)  -->
<svg version="1.1" id="Layer_1" xmlns="http://www.w3.org/2000/svg" xmlns:xlink="http://www.w3.org/1999/xlink" x="0px" y="0px"
	 viewBox="0 0 400 400" style="enable-background:new 0 0 400 400;" xml:space="preserve">
<style type="text/css">
	.st0{clip-path:url(#SVGID_2_);}
	.st1{fill:#73C6DE;}
	.st2{fill:#62A7BE;}
	.st3{fill:#5197AA;}
	.st4{fill:#438799;}
</style>
<g>
	<g>
		<g>
			<defs>
				<path id="SVGID_1_" d="M383.9,157.4l-40.6-18v-27.8l-45.7-13.2l-22.7,16.8V144l-31.5,18.9l6,37.5c6.1,1.4,11,6.4,12,12.9
					c1.4,8.6-4.5,16.7-13.1,18.1c-8.6,1.4-16.7-4.5-18.1-13.1c-1.1-6.5,2.1-12.7,7.4-16l-7.3-45.5l32.7-19.6v-19h-45.1
					c-2.4,5.8-8,9.8-14.6,9.8c-8.7,0-15.8-7.1-15.8-15.8s7.1-15.8,15.8-15.8c6.6,0,12.3,4.1,14.6,9.8H267l23.5-17.3v-13L262.6,59
					h-94.7l-8.6,18.1H108L93.2,95.4l-19.7-1.8L37,132v51.4h32.4l42.3-36.9c-2-5.9-0.4-12.7,4.6-17c6.6-5.7,16.6-5.1,22.3,1.5
					c5.7,6.6,5.1,16.6-1.5,22.3c-5,4.3-11.9,5-17.5,2.2l-42.1,36.7l-2.3,52.2c5.6,2.6,9.5,8.4,9.2,15c-0.4,8.7-7.8,15.5-16.5,15.1
					s-15.5-7.8-15.1-16.5c0.3-6.6,4.6-12.1,10.4-14.2l2.1-48.6h-37L12.8,206L2.2,272.5l42.1,53.4L97.4,341l21.7-20.2h37.3l16-17.3
					L138.3,266l10.7-47c-5.1-3.6-7.8-10-6.3-16.4c1.9-8.5,10.4-13.9,18.9-11.9c8.5,1.9,13.9,10.4,11.9,18.9
					c-1.5,6.4-6.7,11-12.8,12.1l-9.3,40.9l33.2,36.5h16.5l11.2-19.1H325l11.6-18.2v-32l-10-22c-6.2,0.2-12.2-3.2-15-9.3
					c-3.6-8-0.1-17.3,7.9-20.9c8-3.6,17.3-0.1,20.9,7.9c2.7,6,1.4,12.8-2.9,17.4l11.1,24.4v25.2h26.2l22.9-40.3L383.9,157.4z"/>
			</defs>
			<clipPath id="SVGID_2_">
				<use xlink:href="#SVGID_1_"  style="overflow:visible;"/>
			</clipPath>
			<g class="st0">
				<polygon class="st1" points="44.3,325.9 68.6,258.8 119.1,320.8 97.4,341 				"/>
				<polygon class="st2" points="176.5,299.2 144.8,264.4 68.6,258.8 119.1,320.8 156.3,320.8 				"/>
				<polygon class="st2" points="2.2,272.5 68.6,258.8 44.3,325.9 				"/>
				<polygon class="st3" points="2.2,272.5 12.8,206 68.6,258.8 				"/>
				<polygon class="st4" points="12.8,206 68.6,258.8 158,206.2 71.6,189.4 37,189.4 				"/>
				<polygon class="st3" points="158,206.2 68.6,258.8 144.8,264.4 				"/>
				<polygon class="st2" points="73.5,93.6 126.7,141.4 37,132 				"/>
				<polygon class="st1" points="37,132 126.7,141.4 71.6,189.4 37,189.4 				"/>
				<polygon class="st4" points="93.2,95.4 126.7,141.4 73.5,93.6 				"/>
				<polygon class="st1" points="108,77.1 126.7,141.4 93.2,95.4 				"/>
				<polygon class="st3" points="159.3,77.1 108,77.1 126.7,141.4 				"/>
				<polygon class="st1" points="159.3,77.1 203,112.2 167.9,59 				"/>
				<polygon class="st4" points="167.9,59 203,112.2 262.6,59 				"/>
				<polygon class="st3" points="262.6,59 203,112.2 268.8,112.2 290.3,96.3 290.3,75.9 				"/>
				<polygon class="st2" points="159.3,77.1 203,112.2 126.7,141.4 				"/>
				<polygon class="st2" points="126.7,141.4 158,206.2 71.6,189.4 				"/>
				<polygon class="st3" points="126.7,141.4 158,206.2 245.7,215.8 				"/>
				<polygon class="st1" points="126.7,141.4 245.7,215.8 203,112.2 				"/>
				<polygon class="st2" points="203,112.2 245.7,215.8 236.7,159.8 268.8,140.6 268.8,112.2 				"/>
				<polygon class="st1" points="212.3,280 245.7,215.8 325,280 				"/>
				<polygon class="st4" points="325,280 245.7,215.8 342.6,252.4 				"/>
				<polygon class="st2" points="158,206.2 201.2,299.2 212.3,280 245.7,215.8 				"/>
				<polygon class="st1" points="201.2,299.2 158,206.2 144.8,264.4 176.5,299.2 				"/>
				<polygon class="st3" points="343.3,139.4 326,192 383.9,157.4 				"/>
				<polygon class="st2" points="383.9,157.4 326,192 397.8,212.1 				"/>
				<polygon class="st1" points="397.8,212.1 326,192 374.8,252.4 				"/>
				<polygon class="st2" points="326,192 245.7,215.8 342.6,252.4 374.8,252.4 				"/>
				<polygon class="st3" points="245.7,215.8 326,192 268.8,140.6 236.7,159.8 				"/>
				<polygon class="st4" points="343.3,111.6 343.3,139.4 326,192 290.3,96.3 				"/>
				<polygon class="st2" points="295.5,92.4 326,192 268.8,140.6 268.8,112.2 				"/>
			</g>
		</g>
	</g>
</g>
</svg>
